<svg xmlns="http://www.w3.org/2000/svg" viewBox="0 0 685.51 152.04" role="img" aria-label="Instituto Presbiteriano Gammon"><g fill="#366039" fill-rule="evenodd"><path d="m254.01,51.55c-6.86-2.05-14.18-3.3-23.450-3.3-27.11,0-43.81,15.24-43.81,42.42s17.96,39.7,43.81,39.7c8.58,0,17.39-1.82,25.850-4.1v-42.76h-32.26v12.51h16.93v20.7c-2.74.68-6.18,1.14-10.52,1.14-17.04,0-27.11-12.17-27.11-28.32s10.3-28.78,28.94-28.780c6.4,0,14.41,1.36,20.59,4.21l1.03-13.42Z"/><path d="m309.25,49.61h-18.08l-31.11,79.4h16.59l6.97-18.2h32.38l6.86,18.2h17.73l-31.34-79.4Zm-21.05,48.68l11.55-32.75h.23l11.56,32.75h-23.34Z"/><polygon points="344.41 129.01 359.74 129.01 359.74 63.71 359.97 63.49 381.47 129.01 396.8 129.01 418.3 63.49 418.53 63.49 418.53 129.01 433.86 129.01 433.86 49.61 408.24 49.61 389.25 109.78 389.02 109.78 370.03 49.61 344.41 49.61 344.41 129.01"/><polygon points="442.82 129.01 458.15 129.01 458.15 63.71 458.38 63.49 479.88 129.01 495.21 129.01 516.72 63.49 516.95 63.49 516.95 129.01 532.27 129.01 532.27 49.61 506.65 49.61 487.66 109.78 487.43 109.78 468.44 49.61 442.82 49.61 442.82 129.01"/><path d="m576.47,48.25c-25.4,0-39.13,16.49-39.13,40.83s13.5,41.29,39.13,41.29,39.11-17.29,39.11-41.29-14.07-40.83-39.11-40.83Zm0,69.61c-16.36,0-22.43-14.45-22.43-28.78s6.52-28.32,22.43-28.32,22.41,14.33,22.41,28.32-6.06,28.78-22.41,28.78Z"/><polygon points="619.85 129.01 635.18 129.01 635.18 69.63 635.41 69.63 665.95 129.01 685.51 129.01 685.51 49.61 670.18 49.61 670.18 108.99 669.95 108.99 639.52 49.61 619.85 49.61 619.85 129.01"/><path d="m145.96,93.61v-13.75s-13.81.01-13.81.01h-5.87s-35.17,0-35.17,0v13.74h23.18c-9.76,11.16-24.15,18.22-40.2,18.22-29.41,0-53.25-23.71-53.25-52.96S44.68,5.91,74.09,5.91c6.44,0,12.6,1.14,18.31,3.22V0c29.78,5.92,53.36,28.86,60.07,58.18.11.5.22,1,.32,1.5,1.05,5.030,1.6,10.25,1.6,15.6,0,12.57-3.04,24.43-8.43,34.91v-16.58Z"/></g><g fill="#69b932" fill-rule="evenodd"><rect x="192.37" y="21.96" width="3.39" height="16.81"/><polygon points="207.81 38.77 211.05 38.77 211.05 26.2 211.1 26.2 217.57 38.77 221.71 38.77 221.71 21.96 218.46 21.96 218.46 34.53 218.41 34.53 211.97 21.96 207.81 21.96 207.81 38.77"/><path d="m243.45,22.28c-1.23-.41-2.59-.6-4.04-.6-2.98,0-5.91,1.37-5.91,5.13,0,5.56,7.41,4.24,7.41,7.44,0,1.52-1.72,2.17-3,2.17s-2.66-.41-3.830-1.04l-.31,3.04c1.67.41,2.49.65,4.33.65,3.42,0,6.34-1.4,6.34-5.08,0-5.63-7.41-4.4-7.41-7.32,0-1.830,1.5-2.34,2.66-2.34s2.37.27,3.44.72l.32-2.77Z"/><polygon points="259.18 38.77 262.57 38.77 262.57 24.61 267.42 24.61 267.42 21.96 254.34 21.96 254.34 24.61 259.18 24.61 259.18 38.77"/><rect x="277.87" y="21.96" width="3.39" height="16.81"/><polygon points="296.56 38.77 299.95 38.77 299.95 24.61 304.79 24.61 304.79 21.96 291.72 21.96 291.72 24.61 296.56 24.61 296.56 38.77"/><path d="m315.42,32.7c0,4.5,2.57,6.35,6.9,6.35s6.9-1.85,6.9-6.35v-10.74h-3.39v9.7c0,2.86-.92,4.74-3.51,4.74s-3.51-1.88-3.51-4.74v-9.7h-3.39v10.74Z"/><polygon points="344.69 38.77 348.08 38.77 348.08 24.61 352.92 24.61 352.92 21.96 339.85 21.96 339.85 24.61 344.69 24.61 344.69 38.77"/><path d="m371.13,21.67c-5.38,0-8.28,3.5-8.28,8.65s2.85,8.74,8.28,8.74,8.28-3.66,8.28-8.74-2.98-8.65-8.28-8.65Zm0,14.74c-3.47,0-4.75-3.06-4.75-6.09s1.38-6,4.75-6,4.74,3.04,4.74,6-1.28,6.09-4.74,6.09Z"/><path d="m410.41,21.96h-4.28v16.81h3.39v-6.38h1.43c3.63,0,6.51-1.42,6.51-5.35s-3.37-5.08-7.05-5.08Zm.29,7.78h-1.18v-5.13h1.18c1.74,0,3.22.68,3.22,2.62s-1.52,2.51-3.22,2.51Z"/><path d="m438.11,32.2c-.34-.75-.87-1.67-1.79-1.74v-.05c2.15-.28,3.48-1.92,3.48-3.9,0-4.67-4.33-4.55-7.96-4.55h-3.66v16.81h3.39v-6.98h1.09c1.43,0,1.86.48,2.35,1.73l2.030,5.25h3.78l-2.71-6.57Zm-5.43-3.06h-1.11v-4.53h1.11c1.7,0,3.59.17,3.59,2.19s-1.92,2.34-3.59,2.34Z"/><polygon points="451.85 38.77 461.87 38.77 461.87 36.12 455.24 36.12 455.24 31.4 461.27 31.4 461.27 28.75 455.24 28.75 455.24 24.61 461.83 24.61 461.83 21.96 451.85 21.96 451.85 38.77"/><path d="m483.3,22.28c-1.23-.41-2.59-.6-4.04-.6-2.98,0-5.91,1.37-5.91,5.13,0,5.56,7.41,4.24,7.41,7.44,0,1.52-1.72,2.17-3,2.17s-2.66-.41-3.83-1.04l-.32,3.04c1.67.41,2.5.65,4.34.65,3.41,0,6.34-1.4,6.34-5.08,0-5.63-7.41-4.4-7.41-7.32,0-1.83,1.5-2.34,2.66-2.34s2.37.27,3.44.72l.32-2.77Z"/><path d="m503.95,30.08v-.05c2.01-.36,3.37-1.76,3.37-3.76,0-3.68-3.27-4.31-5.45-4.31h-5.91v16.81h5.91c2.13,0,5.96-.63,5.96-4.87,0-2.07-1.58-3.61-3.88-3.82Zm-4.6-5.47h1.31c1.55,0,3.27.15,3.27,2.09,0,1.74-1.77,2.05-3.2,2.05h-1.38v-4.14Zm1.6,11.51h-1.6v-4.86h1.6c1.69,0,3.49.33,3.49,2.52,0,1.96-1.92,2.34-3.49,2.34Z"/><rect x="519.05" y="21.96" width="3.39" height="16.81"/><polygon points="537.74 38.77 541.12 38.77 541.12 24.61 545.97 24.61 545.97 21.96 532.9 21.96 532.9 24.61 537.74 24.61 537.74 38.77"/><polygon points="556.72 38.77 566.74 38.77 566.74 36.12 560.11 36.12 560.11 31.4 566.13 31.4 566.13 28.75 560.11 28.75 560.11 24.61 566.69 24.61 566.69 21.96 556.72 21.96 556.72 38.77"/><path d="m588.41,32.2c-.34-.75-.88-1.67-1.79-1.74v-.05c2.15-.28,3.48-1.92,3.48-3.9,0-4.67-4.33-4.55-7.96-4.55h-3.66v16.81h3.39v-6.98h1.09c1.43,0,1.87.48,2.35,1.73l2.03,5.25h3.78l-2.71-6.57Zm-5.43-3.06h-1.11v-4.53h1.11c1.7,0,3.59.17,3.59,2.19s-1.91,2.34-3.59,2.34Z"/><rect x="601.86" y="21.96" width="3.39" height="16.81"/><path d="m626.14,21.96h-3.83l-6.58,16.81h3.51l1.47-3.85h6.86l1.45,3.85h3.75l-6.63-16.81Zm-4.45,10.31l2.44-6.94h.05l2.45,6.94h-4.94Z"/><polygon points="643.38 38.77 646.62 38.77 646.62 26.2 646.67 26.2 653.13 38.77 657.27 38.77 657.27 21.96 654.03 21.96 654.03 34.53 653.98 34.53 647.54 21.96 643.38 21.96 643.38 38.77"/><path d="m677.08,21.67c-5.38,0-8.28,3.5-8.28,8.65s2.86,8.74,8.28,8.74,8.28-3.66,8.28-8.74-2.98-8.65-8.28-8.65Zm0,14.74c-3.46,0-4.75-3.06-4.75-6.09s1.38-6,4.75-6,4.74,3.04,4.74,6-1.28,6.09-4.74,6.09Z"/><path d="m132.15,108.88v20.31c-9.19,9.26-20.72,16.21-33.65,19.89-.54.15-1.08.3-1.63.44-6.29,1.64-12.88,2.52-19.68,2.52C34.56,152.04,0,117.67,0,75.28,0,38.91,25.43,8.45,59.57.52c-.08.02-.15.04-.23.07C30.93,8.930,10.19,35.06,10.19,66.020c0,37.67,30.71,68.21,68.59,68.21,21.56,0,40.79-9.89,53.37-25.35Z"/></g></svg>
